<?xml version="1.0" encoding="UTF-8" standalone="no"?>
<!-- Created with Inkscape (http://www.inkscape.org/) -->

<svg
   width="1000.0001"
   height="1000.0001"
   viewBox="0 0 264.58335 264.58335"
   version="1.1"
   id="svg1"
   xmlns="http://www.w3.org/2000/svg"
   xmlns:svg="http://www.w3.org/2000/svg">
  <defs
     id="defs1" />
  <g
     id="layer1">
    <path
       d="m 199.69065,192.35983 -4.20956,2.10479 -2.10478,4.20956 6.31434,12.62868 6.31435,-12.62868 -2.10478,-4.20956 z"
       style="baseline-shift:baseline;display:inline;overflow:visible;vector-effect:none;fill:#009300;stroke-linecap:round;stroke-miterlimit:259.4;enable-background:accumulate;stop-color:#000000;stop-opacity:1"
       id="path77" />
    <path
       d="m 0,0 v 154.78125 h 54.560494 l 52.916146,52.91615 h 31.94224 c 1.81232,-7.54901 8.6043,-13.22865 16.68477,-13.22865 9.45114,0 17.19896,7.74625 17.19895,17.1974 0,9.45113 -7.74782,17.19896 -17.19895,17.19895 -8.08047,0 -14.87245,-5.68079 -16.68477,-13.2302 H 104.18951 L 51.273356,162.71875 H 0 v 101.86458 h 73.762939 l -38.32996,-38.32996 c -2.623574,1.62566 -5.680981,2.61173 -8.974129,2.61173 -9.451135,0 -17.1989458,-7.74782 -17.1989501,-17.19895 -2.8e-6,-9.45114 7.7478101,-17.1974 17.1989501,-17.1974 9.451141,0 17.197403,7.74626 17.1974,17.1974 -10e-7,3.29275 -0.985701,6.34993 -2.610693,8.97361 l 43.943571,43.94357 h 96.250452 a 3.96875,3.96875 0 0 1 1.16272,-2.80603 l 51.75395,-51.75394 v -47.30461 h -32.26263 c -1.81232,7.54901 -8.6043,13.22864 -16.68477,13.22865 -9.45114,0 -17.19896,-7.74626 -17.19895,-17.1974 -10e-6,-9.45114 7.74781,-17.1974 17.19895,-17.1974 8.08047,10e-6 14.87245,5.67964 16.68477,13.22865 h 40.20013 v 58.52924 l -51.27129,51.27284 h 73.76087 V 92.60365 h -8.32352 l -37.15174,18.57561 c 0.29882,1.26348 0.49558,2.56372 0.49558,3.91449 0,9.45114 -7.74626,17.1974 -17.1974,17.1974 -9.45114,0 -17.1974,-7.74626 -17.1974,-17.1974 0,-9.45114 7.74626,-17.197402 17.1974,-17.1974 5.26195,-10e-7 9.93606,2.45188 13.09843,6.21151 l 38.88186,-19.44171 h 10.19679 V 0 H 129.96674 l -9.2599,9.2598999 35.71875,35.7187501 h 59.72194 c 1.81273,-7.549007 8.60585,-13.228653 16.68632,-13.22865 9.45114,4e-6 17.1974,7.746264 17.1974,17.1974 0,9.451135 -7.74626,17.198946 -17.1974,17.19895 -8.08047,3e-6 -14.87359,-5.680779 -16.68632,-13.2302 H 153.13691 L 115.09375,14.872994 78.372994,51.59375 H 27.78125 v 40.20013 c 6.268481,1.504899 11.21112,6.447536 12.71602,12.71602 h 12.93151 c 1.812734,-7.549008 8.605858,-13.22865 16.68632,-13.22865 9.451137,0 17.197397,7.746259 17.1974,17.1974 3e-6,9.45114 -7.746259,17.19895 -17.1974,17.19895 -8.080466,0 -14.873589,-5.68078 -16.68632,-13.2302 H 40.49727 c -1.812318,7.54942 -8.604304,13.2302 -16.68477,13.2302 -9.45114,0 -17.1974028,-7.74781 -17.1973999,-17.19895 2.4e-6,-8.08047 5.6796459,-14.872451 13.2286499,-16.68477 V 47.625 0 Z m 127.53278,73.019832 h 52.91667 l -42.48164,39.774318 28.07167,0.52968 -64.96503,65.52934 26.45833,-52.91667 h -26.45833 z m 72.15787,109.595898 10.70581,5.35264 5.35264,10.70581 -11.18691,22.37279 -4.87154,9.74359 -4.87205,-9.74359 -11.1864,-22.37279 5.35265,-10.70581 z"
       style="baseline-shift:baseline;display:inline;overflow:visible;vector-effect:none;fill:#009300;stroke-linecap:round;stroke-miterlimit:259.4;enable-background:accumulate;stop-color:#000000;stop-opacity:1"
       id="path74" />
    <path
       d="m 27.78125,0 v 43.65625 h 47.304606 l 37.200834,-37.2013468 0.002,-0.00207 L 118.74107,0 Z"
       style="baseline-shift:baseline;display:inline;overflow:visible;vector-effect:none;fill:#009300;stroke-linecap:round;stroke-miterlimit:259.4;enable-background:accumulate;stop-color:#000000;stop-opacity:1"
       id="path73" />
    <path
       d="M 127.53278,73.019832 101.07445,125.9365 h 26.45833 l -26.45833,52.91667 64.96503,-65.52934 -28.07167,-0.52968 42.48164,-39.774318 z"
       style="fill:#b2ff00;stroke-width:7.9375;stroke-linecap:round;stroke-miterlimit:259.4"
       id="path75" />
    <path
       d="m 0,154.78125 v 7.9375 h 51.273356 l 52.916154,52.91615 h 35.22937 c 1.81232,7.54941 8.6043,13.2302 16.68477,13.2302 9.45113,10e-6 17.19895,-7.74782 17.19895,-17.19895 10e-6,-9.45115 -7.74781,-17.1974 -17.19895,-17.1974 -8.08047,0 -14.87245,5.67964 -16.68477,13.22865 H 107.47664 L 54.560494,154.78125 Z m 156.10365,47.625 c -3.72993,0 -6.8794,2.15605 -8.3535,5.29115 -0.56572,1.20318 -0.9064,2.53728 -0.9064,3.96875 0,1.43143 0.3407,2.76537 0.9064,3.96875 1.47408,3.13571 4.62353,5.2927 8.3535,5.2927 5.16139,10e-6 9.26145,-4.10006 9.26145,-9.26145 10e-6,-5.1614 -4.10006,-9.2599 -9.26145,-9.2599 z"
       style="fill:#f5d500;stroke-linecap:round;stroke-miterlimit:259.4"
       id="path86" />
    <path
       d="m 19.84375,0 v 47.625 44.16888 c -7.549004,1.812319 -13.2286475,8.6043 -13.2286499,16.68477 -2.9e-6,9.45114 7.7462599,17.19895 17.1973999,17.19895 8.080466,0 14.872452,-5.68078 16.68477,-13.2302 h 12.93151 c 1.812731,7.54942 8.605854,13.2302 16.68632,13.2302 9.451141,0 17.197403,-7.74781 17.1974,-17.19895 -3e-6,-9.451141 -7.746263,-17.1974 -17.1974,-17.1974 -8.080462,0 -14.873586,5.679642 -16.68632,13.22865 H 40.49727 C 38.99237,98.241416 34.049731,93.298779 27.78125,91.79388 V 51.59375 H 78.372994 L 115.09375,14.872994 153.13691,52.91615 h 63.01062 c 1.81273,7.549421 8.60585,13.230203 16.68632,13.2302 9.45114,-4e-6 17.1974,-7.747815 17.1974,-17.19895 0,-9.451136 -7.74626,-17.197396 -17.1974,-17.1974 -8.08047,-3e-6 -14.87359,5.679643 -16.68632,13.22865 H 156.42559 L 120.70684,9.2598999 129.96674,0 h -11.22567 l -6.45232,6.4528361 -0.002,0.00207 L 75.085856,43.65625 H 27.78125 V 0 Z m 212.9901,39.6875 c 5.1614,2e-6 9.2599,4.098506 9.2599,9.2599 0,5.161393 -4.0985,9.261448 -9.2599,9.26145 -3.72996,2e-6 -6.87989,-2.156989 -8.35453,-5.2927 -0.56592,-1.203379 -0.90692,-2.537318 -0.90692,-3.96875 0,-1.431468 0.34098,-2.765565 0.90692,-3.96875 1.47466,-3.135097 4.62461,-5.291151 8.35453,-5.29115 z M 23.8125,99.21875 c 1.431596,0 2.765484,0.340582 3.96875,0.9064 1.931745,0.90839 3.475908,2.45297 4.384229,4.38475 0.565741,1.2032 0.90692,2.53726 0.906921,3.96875 0,1.43145 -0.341207,2.76536 -0.906921,3.96875 -1.474086,3.13568 -4.623035,5.2927 -8.352979,5.2927 -5.161396,0 -9.259901,-4.10006 -9.2599,-9.26145 2e-6,-3.7298 2.156231,-6.87933 5.29115,-8.3535 1.203266,-0.565818 2.537154,-0.9064 3.96875,-0.9064 z m 46.3026,0 c -3.729925,0 -6.879868,2.15605 -8.354529,5.29115 -0.565944,1.20318 -0.906921,2.53728 -0.906921,3.96875 -1e-6,1.43143 0.341004,2.76537 0.906921,3.96875 1.474642,3.13571 4.624565,5.2927 8.354529,5.2927 5.161396,0 9.259902,-4.10006 9.2599,-9.26145 -2e-6,-5.1614 -4.098506,-9.2599 -9.2599,-9.2599 z"
       style="fill:#f5d500;stroke-linecap:round;stroke-miterlimit:259.4"
       id="path89" />
    <path
       d="m 232.83385,39.6875 c -3.72992,-10e-7 -6.87987,2.156053 -8.35453,5.29115 -0.56594,1.203185 -0.90692,2.537282 -0.90692,3.96875 0,1.431432 0.341,2.765371 0.90692,3.96875 1.47464,3.135711 4.62457,5.292702 8.35453,5.2927 5.1614,-2e-6 9.2599,-4.100057 9.2599,-9.26145 0,-5.161394 -4.0985,-9.259898 -9.2599,-9.2599 z"
       style="fill:#009300;stroke-linecap:round;stroke-miterlimit:259.4"
       id="path82" />
    <path
       d="m 23.8125,99.21875 c -1.431596,0 -2.765484,0.340582 -3.96875,0.9064 -3.134919,1.47417 -5.291148,4.6237 -5.29115,8.3535 -10e-7,5.16139 4.098504,9.26145 9.2599,9.26145 3.729944,0 6.878893,-2.15702 8.352979,-5.2927 0.565714,-1.20339 0.906921,-2.5373 0.906921,-3.96875 -1e-6,-1.43149 -0.34118,-2.76555 -0.906921,-3.96875 -0.908321,-1.93178 -2.452484,-3.47636 -4.384229,-4.38475 -1.203266,-0.565818 -2.537154,-0.9064 -3.96875,-0.9064 z"
       style="fill:#009300;stroke-linecap:round;stroke-miterlimit:259.4"
       id="path84" />
    <path
       d="m 185.20885,141.5526 c -9.45114,0 -17.19896,7.74626 -17.19895,17.1974 -10e-6,9.45114 7.74781,17.1974 17.19895,17.1974 8.08047,-10e-6 14.87245,-5.67964 16.68477,-13.22865 h 32.26263 v 47.30461 L 182.4023,261.7773 c -0.74432,0.74417 -1.16256,1.75352 -1.16272,2.80603 h 9.58288 l 51.27129,-51.27284 v -58.52924 h -40.20013 c -1.81232,-7.54901 -8.6043,-13.22864 -16.68477,-13.22865 z m 0,7.9375 c 3.7298,10e-6 6.87933,2.15623 8.3535,5.29115 0.56582,1.20327 0.9064,2.53716 0.9064,3.96875 0,1.43159 -0.34058,2.76548 -0.9064,3.96875 -1.47417,3.13492 -4.6237,5.29114 -8.3535,5.29115 -5.16139,0 -9.26146,-4.0985 -9.26145,-9.2599 -10e-6,-5.1614 4.10006,-9.2599 9.26145,-9.2599 z"
       style="fill:#f5d500;stroke-linecap:round;stroke-miterlimit:259.4"
       id="path87" />
    <path
       d="m 185.20885,149.4901 c -5.16139,0 -9.26146,4.0985 -9.26145,9.2599 -10e-6,5.1614 4.10006,9.2599 9.26145,9.2599 3.7298,-10e-6 6.87933,-2.15623 8.3535,-5.29115 0.56582,-1.20327 0.9064,-2.53716 0.9064,-3.96875 0,-1.43159 -0.34058,-2.76548 -0.9064,-3.96875 -1.47417,-3.13492 -4.6237,-5.29114 -8.3535,-5.29115 z"
       style="fill:#009300;stroke-linecap:round;stroke-miterlimit:259.4"
       id="path80" />
    <path
       d="m 156.10365,202.40625 c -3.72993,0 -6.8794,2.15605 -8.3535,5.29115 -0.56572,1.20318 -0.9064,2.53728 -0.9064,3.96875 0,1.43143 0.3407,2.76537 0.9064,3.96875 1.47408,3.13571 4.62353,5.2927 8.3535,5.2927 5.16139,10e-6 9.26145,-4.10006 9.26145,-9.26145 10e-6,-5.1614 -4.10006,-9.2599 -9.26145,-9.2599 z"
       style="fill:#009300;stroke-linecap:round;stroke-miterlimit:259.4"
       id="path79" />
    <path
       d="m 26.45885,194.46875 c -9.45114,0 -17.1989529,7.74626 -17.1989501,17.1974 4.3e-6,9.45113 7.7478151,17.19895 17.1989501,17.19895 3.293148,0 6.350555,-0.98607 8.974129,-2.61173 l 38.32996,38.32996 H 84.989128 L 41.045557,220.63976 c 1.624992,-2.62368 2.610692,-5.68086 2.610693,-8.97361 3e-6,-9.45114 -7.746259,-17.1974 -17.1974,-17.1974 z m 0,7.9375 c 5.161396,0 9.259902,4.0985 9.2599,9.2599 0,1.09262 -0.218544,2.12104 -0.557072,3.08973 -0.922005,2.6383 -2.974259,4.69151 -5.61206,5.61413 -0.968787,0.33885 -1.997832,0.55759 -3.090768,0.55759 -5.161393,0 -9.261448,-4.10006 -9.26145,-9.26145 -2e-6,-5.1614 4.100054,-9.2599 9.26145,-9.2599 z"
       style="fill:#f5d500;stroke-linecap:round;stroke-miterlimit:259.4"
       id="path85" />
    <path
       d="m 26.45885,202.40625 c -5.161396,0 -9.261452,4.0985 -9.26145,9.2599 2e-6,5.16139 4.100057,9.26145 9.26145,9.26145 1.092936,0 2.121981,-0.21874 3.090768,-0.55759 2.637801,-0.92262 4.690055,-2.97583 5.61206,-5.61413 0.338528,-0.96869 0.557072,-1.99711 0.557072,-3.08973 2e-6,-5.1614 -4.098504,-9.2599 -9.2599,-9.2599 z"
       style="fill:#009300;stroke-linecap:round;stroke-miterlimit:259.4"
       id="path78" />
    <path
       d="m 254.38654,84.66615 -38.88186,19.44171 c -3.16237,-3.75963 -7.83648,-6.211511 -13.09843,-6.21151 -9.45114,-2e-6 -17.1974,7.74626 -17.1974,17.1974 0,9.45114 7.74626,17.1974 17.1974,17.1974 9.45114,0 17.1974,-7.74626 17.1974,-17.1974 0,-1.35077 -0.19676,-2.65101 -0.49558,-3.91449 l 37.15174,-18.57561 h 8.32352 v -7.9375 z m -51.98029,21.1677 c 2.16931,0 4.12532,0.75404 5.69371,1.97662 2.11748,1.65061 3.49132,4.18507 3.5481,7.0988 0.001,0.063 0.0181,0.12118 0.0181,0.18448 0,5.1614 -4.0985,9.2599 -9.2599,9.2599 -5.1614,0 -9.2599,-4.0985 -9.2599,-9.2599 0,-5.1614 4.0985,-9.2599 9.2599,-9.2599 z"
       style="fill:#f5d500;stroke-linecap:round;stroke-miterlimit:259.4"
       id="path88" />
    <path
       d="m 202.40625,105.83385 c -5.1614,0 -9.2599,4.0985 -9.2599,9.2599 0,5.1614 4.0985,9.2599 9.2599,9.2599 5.1614,0 9.2599,-4.0985 9.2599,-9.2599 0,-0.0633 -0.0169,-0.12151 -0.0181,-0.18448 -0.0568,-2.91373 -1.43062,-5.44819 -3.5481,-7.0988 -1.56839,-1.22258 -3.5244,-1.97662 -5.69371,-1.97662 z"
       style="fill:#009300;stroke-linecap:round;stroke-miterlimit:259.4"
       id="path81" />
    <path
       d="m 70.1151,99.21875 c -3.729925,0 -6.879868,2.15605 -8.354529,5.29115 -0.565944,1.20318 -0.906921,2.53728 -0.906921,3.96875 -1e-6,1.43143 0.341004,2.76537 0.906921,3.96875 1.474642,3.13571 4.624565,5.2927 8.354529,5.2927 5.161396,0 9.259902,-4.10006 9.2599,-9.26145 -2e-6,-5.1614 -4.098506,-9.2599 -9.2599,-9.2599 z"
       style="fill:#009300;stroke-linecap:round;stroke-miterlimit:259.4"
       id="path83" />
    <path
       d="m 199.69065,182.61573 -10.7058,5.35264 -5.35265,10.70581 11.1864,22.37279 4.87205,9.74359 4.87154,-9.74359 11.18691,-22.37279 -5.35264,-10.70581 z m 0,9.7441 4.20957,2.10479 2.10478,4.20956 -6.31435,12.62868 -6.31434,-12.62868 2.10478,-4.20956 z"
       style="fill:#b2ff00;stroke-width:0.394123;stroke-linecap:square;stroke-miterlimit:5"
       id="path76" />
  </g>
</svg>
